<svg width="240" height="240" viewBox="0 0 240 240" fill="none" xmlns="http://www.w3.org/2000/svg">
<circle cx="36" cy="108" r="9" fill="#0029FF"/>
<path d="M35.9321 104.143V111.722M32.1426 107.932H39.7215" stroke="white" stroke-width="1.28571" stroke-linecap="round" stroke-linejoin="round"/>
<path d="M79 59.8182L82.125 63L89 56" stroke="#CCDAFF" stroke-width="2" stroke-linecap="round" stroke-linejoin="round"/>
<path d="M7.74023 60.3182L10.3215 63L16.0003 57.1" stroke="white" stroke-width="2" stroke-linecap="round" stroke-linejoin="round"/>
<path d="M14 43L7 36L14 29" stroke="black" stroke-width="2" stroke-linecap="round" stroke-linejoin="round"/>
<path d="M3 6H21" stroke="black" stroke-width="2" stroke-linecap="round"/>
<path d="M3 12H21" stroke="black" stroke-width="2" stroke-linecap="round"/>
<path d="M3 18H21" stroke="black" stroke-width="2" stroke-linecap="round"/>
<path d="M29.0002 5.10596L42.8944 19" stroke="black" stroke-width="2" stroke-linecap="round"/>
<path d="M42.8947 5.10596L29.0004 19" stroke="black" stroke-width="2" stroke-linecap="round"/>
<path d="M34 30L40 36L34 42" stroke="#313749" stroke-width="1.5" stroke-linecap="round" stroke-linejoin="round"/>
<path d="M90 34L84 40L78 34" stroke="#313749" stroke-width="1.5" stroke-linecap="round" stroke-linejoin="round"/>
<path d="M54 38L60 32L66 38" stroke="#313749" stroke-width="1.5" stroke-linecap="round" stroke-linejoin="round"/>
<rect x="124" y="5.68449" width="16" height="14.312" rx="2" stroke="#313749" stroke-width="1.5" stroke-linecap="round" stroke-linejoin="round"/>
<path d="M124 10.1845H139.5" stroke="#313749" stroke-width="1.5" stroke-linecap="round" stroke-linejoin="round"/>
<path d="M127 4.00349V5.68449" stroke="#12192B" stroke-width="1.5" stroke-linecap="round" stroke-linejoin="round"/>
<path d="M137 4.00349V5.68449" stroke="#12192B" stroke-width="1.5" stroke-linecap="round" stroke-linejoin="round"/>
<path d="M106.75 17.5C110.478 17.5 113.5 14.4779 113.5 10.75C113.5 7.02208 110.478 4 106.75 4C103.022 4 99.9998 7.02208 99.9998 10.75C99.9998 14.4779 103.022 17.5 106.75 17.5Z" stroke="black" stroke-width="2" stroke-linecap="round" stroke-linejoin="round"/>
<path d="M115 19.0015L112 16.0015" stroke="black" stroke-width="2" stroke-linecap="round" stroke-linejoin="round"/>
<path d="M30.584 59.8032L33.9694 63.2501L41.4173 55.6668" stroke="#0046FF" stroke-width="2" stroke-linecap="round" stroke-linejoin="round"/>
<path d="M38 76H34.625C34.0283 76 33.456 76.2371 33.034 76.659C32.6121 77.081 32.375 77.6533 32.375 78.25V80.7306C33.7813 80.3305 35.2839 80.4414 36.6163 81.0435C37.9487 81.6456 39.0248 82.7001 39.6538 84.0201C40.2828 85.34 40.4241 86.84 40.0526 88.2541C39.6811 89.6683 38.8208 90.9052 37.6243 91.7455H41.375C41.9717 91.7455 42.544 91.5084 42.966 91.0865C43.3879 90.6645 43.625 90.0922 43.625 89.4955V81.6261H39.6875C39.4658 81.6261 39.2463 81.5824 39.0415 81.4976C38.8367 81.4127 38.6506 81.2883 38.4939 81.1315C38.3371 80.9747 38.2129 80.7885 38.1281 80.5836C38.0434 80.3788 37.9999 80.1592 38 79.9375V76ZM43.6216 80.5H39.6864C39.5372 80.5 39.3941 80.4407 39.2886 80.3352C39.1831 80.2298 39.1239 80.0867 39.1239 79.9375V76H39.1351L43.6216 80.5ZM39.125 86.6875C39.125 88.0302 38.5916 89.3178 37.6422 90.2672C36.6928 91.2166 35.4052 91.75 34.0625 91.75C32.7198 91.75 31.4322 91.2166 30.4828 90.2672C29.5334 89.3178 29 88.0302 29 86.6875C29 85.3448 29.5334 84.0572 30.4828 83.1078C31.4322 82.1584 32.7198 81.625 34.0625 81.625C35.4052 81.625 36.6928 82.1584 37.6422 83.1078C38.5916 84.0572 39.125 85.3448 39.125 86.6875ZM33.6642 89.3346L33.6676 89.338C33.772 89.441 33.9125 89.4991 34.0591 89.5H34.0659C34.2136 89.4991 34.355 89.4401 34.4596 89.3358L36.7096 87.0858C36.7619 87.0335 36.8034 86.9715 36.8318 86.9032C36.8601 86.835 36.8747 86.7618 36.8748 86.6879C36.8748 86.614 36.8603 86.5408 36.8321 86.4725C36.8038 86.4042 36.7624 86.3421 36.7102 86.2898C36.658 86.2375 36.5959 86.196 36.5277 86.1677C36.4594 86.1393 36.3862 86.1247 36.3123 86.1247C36.2384 86.1246 36.1652 86.1391 36.0969 86.1674C36.0286 86.1956 35.9665 86.237 35.9142 86.2892L34.625 87.5796V84.4375C34.625 84.2883 34.5657 84.1452 34.4602 84.0398C34.3548 83.9343 34.2117 83.875 34.0625 83.875C33.9133 83.875 33.7702 83.9343 33.6648 84.0398C33.5593 84.1452 33.5 84.2883 33.5 84.4375V87.5796L32.2108 86.2892C32.1051 86.1836 31.9619 86.1243 31.8125 86.1243C31.6631 86.1243 31.5199 86.1836 31.4142 86.2892C31.3086 86.3949 31.2493 86.5381 31.2493 86.6875C31.2493 86.8369 31.3086 86.9801 31.4142 87.0858L33.6642 89.3358V89.3346Z" fill="#A8AEBD"/>
<path d="M62 76H58.625C58.0283 76 57.456 76.2371 57.034 76.659C56.6121 77.081 56.375 77.6533 56.375 78.25V80.7306C57.7813 80.3305 59.2839 80.4414 60.6163 81.0435C61.9487 81.6456 63.0248 82.7001 63.6538 84.0201C64.2828 85.34 64.4241 86.84 64.0526 88.2541C63.6811 89.6683 62.8208 90.9052 61.6243 91.7455H65.375C65.9717 91.7455 66.544 91.5084 66.966 91.0865C67.3879 90.6645 67.625 90.0922 67.625 89.4955V81.6261H63.6875C63.4658 81.6261 63.2463 81.5824 63.0415 81.4976C62.8367 81.4127 62.6506 81.2883 62.4939 81.1315C62.3371 80.9747 62.2129 80.7885 62.1281 80.5836C62.0434 80.3788 61.9999 80.1592 62 79.9375V76ZM67.6216 80.5H63.6864C63.5372 80.5 63.3941 80.4407 63.2886 80.3352C63.1831 80.2298 63.1239 80.0867 63.1239 79.9375V76H63.1351L67.6216 80.5ZM63.125 86.6875C63.125 88.0302 62.5916 89.3178 61.6422 90.2672C60.6928 91.2166 59.4052 91.75 58.0625 91.75C56.7198 91.75 55.4322 91.2166 54.4828 90.2672C53.5334 89.3178 53 88.0302 53 86.6875C53 85.3448 53.5334 84.0572 54.4828 83.1078C55.4322 82.1584 56.7198 81.625 58.0625 81.625C59.4052 81.625 60.6928 82.1584 61.6422 83.1078C62.5916 84.0572 63.125 85.3448 63.125 86.6875ZM57.6642 89.3346L57.6676 89.338C57.772 89.441 57.9125 89.4991 58.0591 89.5H58.0659C58.2136 89.4991 58.355 89.4401 58.4596 89.3358L60.7096 87.0858C60.7619 87.0335 60.8034 86.9715 60.8318 86.9032C60.8601 86.835 60.8747 86.7618 60.8748 86.6879C60.8748 86.614 60.8603 86.5408 60.8321 86.4725C60.8038 86.4042 60.7624 86.3421 60.7102 86.2898C60.658 86.2375 60.5959 86.196 60.5277 86.1677C60.4594 86.1393 60.3862 86.1247 60.3123 86.1247C60.2384 86.1246 60.1652 86.1391 60.0969 86.1674C60.0286 86.1956 59.9665 86.237 59.9142 86.2892L58.625 87.5796V84.4375C58.625 84.2883 58.5657 84.1452 58.4602 84.0398C58.3548 83.9343 58.2117 83.875 58.0625 83.875C57.9133 83.875 57.7702 83.9343 57.6648 84.0398C57.5593 84.1452 57.5 84.2883 57.5 84.4375V87.5796L56.2108 86.2892C56.1051 86.1836 55.9619 86.1243 55.8125 86.1243C55.6631 86.1243 55.5199 86.1836 55.4142 86.2892C55.3086 86.3949 55.2493 86.5381 55.2493 86.6875C55.2493 86.8369 55.3086 86.9801 55.4142 87.0858L57.6642 89.3358V89.3346Z" fill="#E2E4E9"/>
<path d="M115.766 77.0921C115.95 77.226 116.026 77.4046 115.992 77.6278L113.849 90.4849C113.822 90.6468 113.732 90.7723 113.582 90.8616C113.503 90.9062 113.417 90.9286 113.322 90.9286C113.261 90.9286 113.194 90.9146 113.121 90.8867L109.329 89.3382L107.304 91.8075C107.203 91.9358 107.067 92 106.894 92C106.821 92 106.76 91.9888 106.71 91.9665C106.604 91.9275 106.518 91.8619 106.454 91.7698C106.39 91.6777 106.358 91.5759 106.358 91.4643V88.543L113.59 79.6786L104.642 87.4213L101.336 86.0653C101.129 85.9872 101.018 85.8337 101.001 85.6049C100.99 85.3817 101.079 85.2171 101.269 85.111L115.197 77.0753C115.281 77.0251 115.37 77 115.465 77C115.577 77 115.677 77.0307 115.766 77.0921Z" fill="#E2E4E9"/>
<path d="M91.7663 77.0921C91.9504 77.226 92.0258 77.4046 91.9923 77.6278L89.8495 90.4849C89.8216 90.6468 89.7323 90.7723 89.5816 90.8616C89.5035 90.9062 89.417 90.9286 89.3221 90.9286C89.2607 90.9286 89.1938 90.9146 89.1212 90.8867L85.3295 89.3382L83.3038 91.8075C83.2034 91.9358 83.0667 92 82.8937 92C82.8211 92 82.7597 91.9888 82.7095 91.9665C82.6035 91.9275 82.5184 91.8619 82.4542 91.7698C82.3901 91.6777 82.358 91.5759 82.358 91.4643V88.543L89.59 79.6786L80.642 87.4213L77.3357 86.0653C77.1293 85.9872 77.0177 85.8337 77.0009 85.6049C76.9898 85.3817 77.0791 85.2171 77.2688 85.111L91.1971 77.0753C91.2808 77.0251 91.3701 77 91.4649 77C91.5765 77 91.677 77.0307 91.7663 77.0921Z" fill="#A8AEBD"/>
<path d="M8 134L12 138M12 138L16 134M12 138V126" stroke="#7E869A" stroke-width="1.5" stroke-linecap="round" stroke-linejoin="round"/>
<circle cx="132" cy="84.2952" r="8" fill="#A8AEBD"/>
<g clip-path="url(#clip0_1_820)">
<path d="M128.5 87.7952L135.5 80.7952" stroke="white" stroke-width="1.5" stroke-linecap="round" stroke-linejoin="round"/>
<path d="M132.699 80.7952H135.499V83.5952" stroke="white" stroke-width="1.5" stroke-linecap="round" stroke-linejoin="round"/>
<path d="M131.3 87.7952H128.5V84.9952" stroke="white" stroke-width="1.5" stroke-linecap="round" stroke-linejoin="round"/>
</g>
<path d="M158.287 7.34039L152.594 13.0337C151.909 13.6941 151.884 14.7949 152.551 15.4737C153.211 16.1586 154.312 16.183 154.991 15.5165C155.003 15.5042 155.021 15.4859 155.034 15.4737L160.58 9.78037C161.956 8.45336 161.992 6.26411 160.666 4.88818C159.345 3.51837 157.156 3.48167 155.78 4.80868C155.749 4.83926 155.725 4.86372 155.694 4.89429L150.148 10.5876C148.124 12.6117 148.124 15.9017 150.148 17.9259C152.172 19.95 155.462 19.95 157.486 17.9259L162.891 12.52" stroke="#313749" stroke-width="1.5" stroke-linecap="round" stroke-linejoin="round"/>
<path d="M51 10.9316C51 10.3573 51 10.0701 51.074 9.80564C51.1396 9.57137 51.2474 9.35103 51.392 9.15544C51.5553 8.93464 51.782 8.75833 52.2354 8.40571L59.0177 3.13058C59.369 2.85733 59.5447 2.7207 59.7387 2.66819C59.9098 2.62185 60.0902 2.62185 60.2613 2.66819C60.4553 2.7207 60.631 2.85733 60.9823 3.13058L67.7646 8.40571C68.218 8.75833 68.4447 8.93464 68.608 9.15544C68.7526 9.35103 68.8604 9.57137 68.926 9.80564C69 10.0701 69 10.3573 69 10.9316V18.1666C69 19.2867 69 19.8467 68.782 20.2746C68.5903 20.6509 68.2843 20.9568 67.908 21.1486C67.4802 21.3666 66.9201 21.3666 65.8 21.3666H54.2C53.0799 21.3666 52.5198 21.3666 52.092 21.1486C51.7157 20.9568 51.4097 20.6509 51.218 20.2746C51 19.8467 51 19.2867 51 18.1666V10.9316Z" stroke="#313749" stroke-width="1.5"/>
<path d="M61.0014 172.697L62.9603 176.68C63.0588 176.877 63.2449 177.009 63.4528 177.041L67.8413 177.676C68.3776 177.753 68.5964 178.421 68.2025 178.793L65.0287 181.89C64.8755 182.043 64.7989 182.262 64.8427 182.47L65.5978 186.848C65.6854 187.384 65.1272 187.789 64.6457 187.537L60.7168 185.469C60.5308 185.37 60.3009 185.37 60.104 185.469L56.1751 187.537C55.6936 187.789 55.1354 187.384 55.223 186.848L55.9781 182.47C56.0109 182.262 55.9453 182.043 55.7921 181.89L52.6074 178.804C52.2134 178.421 52.4323 177.764 52.9685 177.687L57.357 177.052C57.5759 177.02 57.751 176.888 57.8495 176.691L59.8194 172.697C60.0602 172.204 60.7606 172.204 61.0014 172.697Z" fill="url(#paint0_linear_1_820)"/>
<path d="M37.0014 172.696L38.9603 176.68C39.0588 176.877 39.2449 177.008 39.4528 177.041L43.8413 177.676C44.3776 177.753 44.5964 178.42 44.2025 178.792L41.0287 181.89C40.8755 182.043 40.7989 182.262 40.8427 182.47L41.5978 186.847C41.6854 187.384 41.1272 187.789 40.6457 187.537L36.7168 185.468C36.5308 185.37 36.3009 185.37 36.104 185.468L32.1751 187.537C31.6936 187.789 31.1354 187.384 31.223 186.847L31.9781 182.47C32.0109 182.262 31.9453 182.043 31.7921 181.89L28.6074 178.803C28.2134 178.42 28.4323 177.763 28.9685 177.687L33.357 177.052C33.5759 177.019 33.751 176.888 33.8495 176.691L35.8194 172.696C36.0602 172.204 36.7606 172.204 37.0014 172.696Z" fill="#C4C8D4" fill-opacity="0.6"/>
<g clip-path="url(#clip1_1_820)">
<path d="M5.5 177.5H19.5" stroke="#A8AEBD" stroke-linecap="round" stroke-linejoin="round"/>
<path d="M5.5 180.5H19.5" stroke="#A8AEBD" stroke-linecap="round" stroke-linejoin="round"/>
<path d="M5.5 183.5H19.5" stroke="#A8AEBD" stroke-linecap="round" stroke-linejoin="round"/>
</g>
<g clip-path="url(#clip2_1_820)">
<path d="M227.801 3.72298V10.6462" stroke="#313749" stroke-width="1.6" stroke-linecap="round" stroke-linejoin="round"/>
<path d="M222.09 6.08838C220.625 7.5538 219.725 9.57308 219.725 11.8001C219.725 14.027 220.625 16.0463 222.09 17.5117C223.555 18.9771 225.575 19.8772 227.802 19.8772C230.028 19.8772 232.048 18.9771 233.513 17.5117C234.978 16.0463 235.878 14.027 235.878 11.8001C235.878 9.57308 234.978 7.5538 233.513 6.08838" stroke="#313749" stroke-width="1.6" stroke-linecap="round" stroke-linejoin="round"/>
</g>
<path d="M81.4305 3.92485L82.1784 3.98121V3.98121L81.4305 3.92485ZM86.5029 3.92485L85.7551 3.98121V3.98121L86.5029 3.92485ZM86.6066 5.29981L85.8587 5.35617L85.894 5.82497L86.3313 5.99749L86.6066 5.29981ZM88.5902 6.48139L88.1082 7.05599L88.4746 7.36339L88.9079 7.16079L88.5902 6.48139ZM89.9782 5.83237L90.2959 6.51177H90.2959L89.9782 5.83237ZM91.3011 6.23626L90.6574 6.62112L90.6574 6.62112L91.3011 6.23626ZM92.8121 8.76352L92.1684 9.14838L92.8121 8.76352ZM92.5128 10.0719L92.1017 9.44457V9.44457L92.5128 10.0719ZM91.0967 10.9999L90.6856 10.3726L90.2885 10.6329L90.3539 11.1031L91.0967 10.9999ZM91.0966 13.0013L90.3537 12.8979L90.2883 13.3683L90.6855 13.6286L91.0966 13.0013ZM92.5109 13.9282L92.0998 14.5555V14.5555L92.5109 13.9282ZM92.8102 15.2365L93.4539 15.6214V15.6214L92.8102 15.2365ZM91.2992 17.7638L91.9429 18.1486V18.1486L91.2992 17.7638ZM89.9763 18.1677L89.6586 18.847L89.6586 18.847L89.9763 18.1677ZM88.5896 17.5192L88.9073 16.8398L88.4741 16.6373L88.1076 16.9446L88.5896 17.5192ZM86.6066 18.7003L86.3314 18.0026L85.8941 18.1751L85.8587 18.6439L86.6066 18.7003ZM86.503 20.0752L85.7551 20.0188L86.503 20.0752ZM81.4306 20.0752L80.6827 20.1315L81.4306 20.0752ZM81.327 18.7012L82.0749 18.6449L82.0396 18.1759L81.602 18.0034L81.327 18.7012ZM79.3549 17.5303L79.8355 16.9545L79.4693 16.6489L79.0372 16.8509L79.3549 17.5303ZM77.9925 18.1674L77.6748 17.488L77.6748 17.488L77.9925 18.1674ZM76.6696 17.7635L76.0258 18.1484H76.0258L76.6696 17.7635ZM75.1586 15.2362L75.8023 14.8514H75.8023L75.1586 15.2362ZM75.4579 13.9279L75.869 14.5552H75.869L75.4579 13.9279ZM76.8378 13.0235L77.2489 13.6508L77.6475 13.3896L77.5803 12.9179L76.8378 13.0235ZM76.8378 10.9765L77.5803 11.0821L77.6475 10.6104L77.2489 10.3492L76.8378 10.9765ZM75.4578 10.0721L75.8689 9.44478L75.8689 9.44478L75.4578 10.0721ZM75.1586 8.76374L74.5148 8.37888H74.5148L75.1586 8.76374ZM76.6695 6.23648L76.0258 5.85162L76.6695 6.23648ZM77.9925 5.83259L77.6748 6.51198L77.9925 5.83259ZM79.355 6.46971L79.0373 7.1491L79.4694 7.35114L79.8356 7.04552L79.355 6.46971ZM81.327 5.2989L81.602 5.99668L82.0395 5.82425L82.0749 5.35527L81.327 5.2989ZM82.4277 2.25C81.5122 2.25 80.7515 2.95559 80.6827 3.86849L82.1784 3.98121C82.1883 3.8508 82.2969 3.75 82.4277 3.75V2.25ZM85.5058 2.25H82.4277V3.75H85.5058V2.25ZM87.2508 3.86848C87.182 2.95559 86.4212 2.25 85.5058 2.25V3.75C85.6365 3.75 85.7452 3.8508 85.7551 3.98121L87.2508 3.86848ZM87.3544 5.24345L87.2508 3.86848L85.7551 3.98121L85.8587 5.35617L87.3544 5.24345ZM86.3313 5.99749C86.9816 6.25399 87.5806 6.6134 88.1082 7.05599L89.0722 5.9068C88.4228 5.36198 87.6845 4.91877 86.8818 4.60213L86.3313 5.99749ZM89.6605 5.15298L88.2725 5.802L88.9079 7.16079L90.2959 6.51177L89.6605 5.15298ZM91.9449 5.8514C91.4775 5.06974 90.4841 4.76785 89.6605 5.15298L90.2959 6.51177C90.4247 6.45152 90.5863 6.50225 90.6574 6.62112L91.9449 5.8514ZM93.4558 8.37866L91.9449 5.8514L90.6574 6.62112L92.1684 9.14838L93.4558 8.37866ZM92.9239 10.6992C93.6993 10.191 93.9307 9.17288 93.4558 8.37866L92.1684 9.14838C92.2319 9.2547 92.202 9.37886 92.1017 9.44457L92.9239 10.6992ZM91.5078 11.6272L92.9239 10.6992L92.1017 9.44457L90.6856 10.3726L91.5078 11.6272ZM90.3539 11.1031C90.3945 11.3959 90.4156 11.6953 90.4156 12H91.9156C91.9156 11.626 91.8897 11.2577 91.8396 10.8967L90.3539 11.1031ZM90.4156 12C90.4156 12.3051 90.3945 12.6048 90.3537 12.8979L91.8394 13.1046C91.8897 12.7433 91.9156 12.3745 91.9156 12H90.4156ZM92.922 13.3009L91.5077 12.374L90.6855 13.6286L92.0998 14.5555L92.922 13.3009ZM93.4539 15.6214C93.9288 14.8271 93.6974 13.809 92.922 13.3009L92.0998 14.5555C92.2001 14.6212 92.23 14.7453 92.1665 14.8516L93.4539 15.6214ZM91.9429 18.1486L93.4539 15.6214L92.1665 14.8516L90.6555 17.3789L91.9429 18.1486ZM89.6586 18.847C90.4822 19.2322 91.4756 18.9303 91.9429 18.1486L90.6555 17.3789C90.5844 17.4978 90.4228 17.5485 90.2939 17.4883L89.6586 18.847ZM88.2719 18.1986L89.6586 18.847L90.2939 17.4883L88.9073 16.8398L88.2719 18.1986ZM88.1076 16.9446C87.5802 17.387 86.9814 17.7462 86.3314 18.0026L86.8818 19.3979C87.6842 19.0814 88.4223 18.6384 89.0715 18.0939L88.1076 16.9446ZM87.2509 20.1315L87.3545 18.7566L85.8587 18.6439L85.7551 20.0188L87.2509 20.1315ZM85.5058 21.75C86.4213 21.75 87.1821 21.0444 87.2509 20.1315L85.7551 20.0188C85.7453 20.1492 85.6366 20.25 85.5058 20.25V21.75ZM82.4278 21.75H85.5058V20.25H82.4278V21.75ZM80.6827 20.1315C80.7515 21.0444 81.5123 21.75 82.4278 21.75V20.25C82.297 20.25 82.1883 20.1492 82.1785 20.0188L80.6827 20.1315ZM80.5792 18.7576L80.6827 20.1315L82.1785 20.0188L82.0749 18.6449L80.5792 18.7576ZM81.602 18.0034C80.9561 17.7489 80.3606 17.3928 79.8355 16.9545L78.8743 18.1061C79.5208 18.6457 80.2547 19.0848 81.0521 19.399L81.602 18.0034ZM78.3102 18.8468L79.6726 18.2097L79.0372 16.8509L77.6748 17.488L78.3102 18.8468ZM76.0258 18.1484C76.4932 18.93 77.4866 19.2319 78.3102 18.8468L77.6748 17.488C77.546 17.5482 77.3844 17.4975 77.3133 17.3786L76.0258 18.1484ZM74.5149 15.6211L76.0258 18.1484L77.3133 17.3786L75.8023 14.8514L74.5149 15.6211ZM75.0468 13.3006C74.2714 13.8088 74.04 14.8269 74.5149 15.6211L75.8023 14.8514C75.7388 14.7451 75.7687 14.6209 75.869 14.5552L75.0468 13.3006ZM76.4267 12.3962L75.0468 13.3006L75.869 14.5552L77.2489 13.6508L76.4267 12.3962ZM77.5803 12.9179C77.5377 12.6185 77.5156 12.312 77.5156 12H76.0156C76.0156 12.383 76.0428 12.76 76.0953 13.1292L77.5803 12.9179ZM77.5156 12C77.5156 11.688 77.5377 11.3816 77.5803 11.0821L76.0953 10.8708C76.0428 11.24 76.0156 11.6171 76.0156 12H77.5156ZM75.0467 10.6994L76.4267 11.6038L77.2489 10.3492L75.8689 9.44478L75.0467 10.6994ZM74.5148 8.37888C74.04 9.1731 74.2713 10.1912 75.0467 10.6994L75.8689 9.44478C75.7687 9.37908 75.7387 9.25491 75.8023 9.1486L74.5148 8.37888ZM76.0258 5.85162L74.5148 8.37888L75.8023 9.1486L77.3133 6.62134L76.0258 5.85162ZM78.3102 5.1532C77.4865 4.76806 76.4931 5.06995 76.0258 5.85162L77.3133 6.62134C77.3843 6.50247 77.546 6.45173 77.6748 6.51198L78.3102 5.1532ZM79.6727 5.79032L78.3102 5.1532L77.6748 6.51198L79.0373 7.1491L79.6727 5.79032ZM79.8356 7.04552C80.3607 6.60726 80.9561 6.25121 81.602 5.99668L81.052 4.60113C80.2547 4.91534 79.5208 5.35441 78.8744 5.8939L79.8356 7.04552ZM80.6827 3.86849L80.5791 5.24254L82.0749 5.35527L82.1784 3.98121L80.6827 3.86849Z" fill="#313749"/>
<circle cx="83.9656" cy="12" r="2.7" stroke="#313749" stroke-width="1.5"/>
<path d="M206.394 19.65C206.394 20.9297 205.168 21.9672 203.656 21.9672C202.145 21.9672 200.919 20.9297 200.919 19.65" stroke="#313749" stroke-width="1.42489"/>
<path d="M210.958 14.8508L211.623 14.5953L210.958 14.8508ZM212.287 18.3094L212.952 18.0538L212.287 18.3094ZM195.027 18.3094L194.362 18.0538L195.027 18.3094ZM196.292 15.0177L195.627 14.7621L196.292 15.0177ZM197.068 10.7503C197.068 7.11193 200.017 4.16244 203.656 4.16244V2.73755C199.23 2.73755 195.643 6.32498 195.643 10.7503H197.068ZM197.068 14.677V10.7503H195.643V14.677H197.068ZM195.692 18.5649L196.957 15.2732L195.627 14.7621L194.362 18.0538L195.692 18.5649ZM211.401 18.8876H195.914V20.3124H211.401V18.8876ZM210.293 15.1064L211.622 18.5649L212.952 18.0538L211.623 14.5953L210.293 15.1064ZM210.244 10.7503V14.8488H211.668V10.7503H210.244ZM203.656 4.16244C207.294 4.16244 210.244 7.11193 210.244 10.7503H211.668C211.668 6.32498 208.081 2.73755 203.656 2.73755V4.16244ZM210.957 14.1376C211.35 14.1376 211.668 14.456 211.668 14.8488H210.244C210.244 15.2429 210.563 15.5625 210.957 15.5625V14.1376ZM211.623 14.5953C211.517 14.3195 211.253 14.1376 210.957 14.1376V15.5625C210.663 15.5625 210.399 15.3811 210.293 15.1064L211.623 14.5953ZM211.401 20.3124C212.567 20.3124 213.371 19.1426 212.952 18.0538L211.622 18.5649C211.682 18.7204 211.567 18.8876 211.401 18.8876V20.3124ZM194.362 18.0538C193.944 19.1426 194.748 20.3124 195.914 20.3124V18.8876C195.747 18.8876 195.633 18.7204 195.692 18.5649L194.362 18.0538ZM195.643 14.677C195.643 14.7061 195.638 14.735 195.627 14.7621L196.957 15.2732C197.03 15.0829 197.068 14.8808 197.068 14.677H195.643Z" fill="#313749"/>
<path d="M203.657 1.51141L203.655 2.80322" stroke="#313749" stroke-width="1.42489" stroke-linecap="round"/>
<circle cx="204" cy="84" r="9" fill="#001644" fill-opacity="0.6"/>
<rect x="201" y="80" width="2" height="8" fill="white"/>
<rect x="205" y="80" width="2" height="8" fill="white"/>
<circle cx="228" cy="84" r="9" fill="#001644" fill-opacity="0.6"/>
<path d="M231.649 84L225.243 88.0558L225.243 79.9442L231.649 84Z" fill="white"/>
<circle cx="179.999" cy="9.83968" r="2.68831" stroke="#313749" stroke-width="1.5" stroke-linecap="round" stroke-linejoin="round"/>
<path d="M185.43 18.9017V18.9017C185.43 16.6926 183.639 14.8719 181.43 14.8719H178.57C176.361 14.8719 174.57 16.6926 174.57 18.9017V18.9017" stroke="#313749" stroke-width="1.5" stroke-linecap="round" stroke-linejoin="round"/>
<rect x="171" y="3" width="18" height="18" rx="9" stroke="#313749" stroke-width="1.5" stroke-linecap="round" stroke-linejoin="round"/>
<path d="M138 34L132 40L126 34" stroke="white" stroke-width="1.5" stroke-linecap="round" stroke-linejoin="round"/>
<path fill-rule="evenodd" clip-rule="evenodd" d="M228 128.667C225.791 128.667 224 130.458 224 132.667C224 134.876 225.791 136.667 228 136.667C230.209 136.667 232 134.876 232 132.667C232 130.458 230.209 128.667 228 128.667ZM226.136 124C224.67 124 223.368 124.794 222.671 126H220.667C219.194 126 218 127.194 218 128.667V137.333C218 138.806 219.194 140 220.667 140H235.333C236.806 140 238 138.806 238 137.333V128.667C238 127.194 236.806 126 235.333 126H233.329C232.632 124.794 231.33 124 229.864 124H226.136Z" fill="white"/>
<path d="M230.667 132.667C230.667 134.139 229.473 135.333 228 135.333C226.527 135.333 225.333 134.139 225.333 132.667C225.333 131.194 226.527 130 228 130C229.473 130 230.667 131.194 230.667 132.667Z" fill="white"/>
<path d="M45 129H35M35 129C35 130.105 34.1046 131 33 131C31.8954 131 31 130.105 31 129M35 129C35 127.895 34.1046 127 33 127C31.8954 127 31 127.895 31 129M31 129H27M38 136H27M38 136C38 137.105 38.8954 138 40 138C41.1046 138 42 137.105 42 136M38 136C38 134.895 38.8954 134 40 134C41.1046 134 42 134.895 42 136M45 136H42" stroke="#656B7B" stroke-width="1.5" stroke-linecap="round"/>
<circle cx="12" cy="84" r="8" fill="#7E869A"/>
<path d="M9 81L15 87" stroke="white" stroke-width="1.5" stroke-linecap="round"/>
<path d="M15 81L9 87" stroke="white" stroke-width="1.5" stroke-linecap="round"/>
<path d="M127.101 60.3659L130.07 63.45L136.601 56.665" stroke="white" stroke-width="2" stroke-linecap="round" stroke-linejoin="round"/>
<path d="M55.6244 59.841L58.3588 62.6251L64.3744 56.5001" stroke="#7E869A" stroke-width="1.65" stroke-linecap="round" stroke-linejoin="round"/>
<path d="M103.624 59.841L106.359 62.6251L112.374 56.5001" stroke="#EDEFF2" stroke-width="1.5" stroke-linecap="round" stroke-linejoin="round"/>
<path d="M151.334 60.3486L153.938 63.0001L159.667 57.1667" stroke="#7E869A" stroke-width="2" stroke-linecap="round" stroke-linejoin="round"/>
<defs>
<linearGradient id="paint0_linear_1_820" x1="52" y1="172" x2="68" y2="188" gradientUnits="userSpaceOnUse">
<stop stop-color="#FFD12D"/>
<stop offset="1" stop-color="#FFA927"/>
</linearGradient>
<clipPath id="clip0_1_820">
<rect width="10" height="10" fill="white" transform="translate(127 79.2952)"/>
</clipPath>
<clipPath id="clip1_1_820">
<rect width="15" height="7" fill="white" transform="translate(5 177)"/>
</clipPath>
<clipPath id="clip2_1_820">
<rect width="18" height="18.0004" fill="white" transform="translate(218.801 2.7998)"/>
</clipPath>
</defs>
</svg>
