<svg width="160" height="160" viewBox="0 0 160 160" fill="none" xmlns="http://www.w3.org/2000/svg">
<path d="M92 52L84 60M84 52L92 60" stroke="#7E869A" stroke-linecap="round"/>
<path d="M72 19V29M67 24H77" stroke="#313749" stroke-linecap="round" stroke-linejoin="round"/>
<path d="M83 24H93" stroke="#313749" stroke-linecap="round" stroke-linejoin="round"/>
<rect x="35.7573" y="68.5607" width="1" height="11" transform="rotate(-45 35.7573 68.5607)" fill="#656B7B"/>
<rect x="36.4648" y="76.3387" width="1" height="11" transform="rotate(-135 36.4648 76.3387)" fill="#656B7B"/>
<circle cx="39.9998" cy="68.5535" r="0.7" fill="#656B7B"/>
<circle cx="39.9998" cy="75.6387" r="0.7" fill="#656B7B"/>
<circle cx="36.4573" cy="72.0962" r="0.7" fill="#656B7B"/>
<circle cx="43.5428" cy="72.0962" r="0.7" fill="#656B7B"/>
<rect x="51.7578" y="68.4645" width="1" height="11" transform="rotate(-45 51.7578 68.4645)" fill="#0046FF"/>
<rect x="52.4648" y="76.2426" width="1" height="11" transform="rotate(-135 52.4648 76.2426)" fill="#0046FF"/>
<circle cx="56.0008" cy="68.4573" r="0.7" fill="#0046FF"/>
<circle cx="56.0008" cy="75.5425" r="0.7" fill="#0046FF"/>
<circle cx="52.4578" cy="72.0001" r="0.7" fill="#0046FF"/>
<circle cx="59.5438" cy="72" r="0.7" fill="#0046FF"/>
<path d="M131.339 43L141.361 43C141.615 43 141.754 42.7038 141.592 42.5083L136.581 36.4746C136.461 36.3301 136.239 36.3301 136.119 36.4746L131.108 42.5083C130.946 42.7038 131.085 43 131.339 43Z" fill="#7E869A"/>
<path d="M4 71.4711L6.35856 74L11 68.9999" stroke="#656B7B" stroke-width="1.2" stroke-linecap="round" stroke-linejoin="round"/>
<path d="M20 71.4711L22.3586 74L27 68.9999" stroke="#0046FF" stroke-width="1.2" stroke-linecap="round" stroke-linejoin="round"/>
<path d="M68 56.1818L70.6042 58.8333L76.3333 53" stroke="#A8BFFF" stroke-width="1.5" stroke-linecap="round" stroke-linejoin="round"/>
<path d="M11 18L5 24L11 30" stroke="#7E869A" stroke-width="1.5" stroke-linecap="round" stroke-linejoin="round"/>
<path d="M34 21L40 27L46 21" stroke="#7E869A" stroke-width="1.5" stroke-linecap="round" stroke-linejoin="round"/>
<path d="M62 27L56 21L50 27" stroke="#7E869A" stroke-width="1.5" stroke-linecap="round" stroke-linejoin="round"/>
<path d="M115.5 53.75L120 58.25L124.5 53.75" stroke="#7E869A" stroke-linecap="round" stroke-linejoin="round"/>
<path d="M100 57.3333L104 53.3333L108 57.3333" stroke="#7E869A" stroke-linecap="round" stroke-linejoin="round"/>
<path d="M4 56.1818L6.60417 58.8333L12.3333 53" stroke="white" stroke-width="1.5" stroke-linecap="round" stroke-linejoin="round"/>
<path d="M21 30L27 24L21 18" stroke="#7E869A" stroke-width="1.5" stroke-linecap="round" stroke-linejoin="round"/>
<path d="M52 56.1818L54.6042 58.8333L60.3333 53" stroke="#E2E4E9" stroke-width="1.5" stroke-linecap="round" stroke-linejoin="round"/>
<path d="M36 56.1818L38.6042 58.8333L44.3333 53" stroke="#7E869A" stroke-width="1.5" stroke-linecap="round" stroke-linejoin="round"/>
<path d="M20 56.1818L22.6042 58.8333L28.3333 53" stroke="#0046FF" stroke-width="1.5" stroke-linecap="round" stroke-linejoin="round"/>
<g opacity="0.7">
<circle cx="7.98305" cy="7.72365" r="6.02232" stroke="#0046FF" stroke-linecap="round" stroke-linejoin="round"/>
<path d="M7.84961 4.71753V8.07312H10.8374" stroke="#0046FF" stroke-linecap="round" stroke-linejoin="round"/>
</g>
<circle cx="40" cy="8" r="6.66667" fill="#FF002B"/>
<rect x="39.3333" y="4.66666" width="1.33333" height="4.66667" fill="white"/>
<rect x="39.3333" y="10.6667" width="1.33333" height="1.33333" fill="white"/>
<path d="M37.75 44.5L42.25 40L37.75 35.5" stroke="#C4C8D4" stroke-linecap="round" stroke-linejoin="round"/>
<path d="M21.75 44.5L26.25 40L21.75 35.5" stroke="#313749" stroke-linecap="round" stroke-linejoin="round"/>
<path d="M5.75 44.5L10.25 40L5.75 35.5" stroke="#7E869A" stroke-linecap="round" stroke-linejoin="round"/>
<path d="M85.75 44.5L90.25 40L85.75 35.5" stroke="#A8BFFF" stroke-linecap="round" stroke-linejoin="round"/>
<path d="M69.75 44.5L74.25 40L69.75 35.5" stroke="#0036C6" stroke-linecap="round" stroke-linejoin="round"/>
<path d="M53.75 44.5L58.25 40L53.75 35.5" stroke="#0046FF" stroke-linecap="round" stroke-linejoin="round"/>
<g opacity="0.5">
<path d="M115.5 37.75L120 42.25L124.5 37.75" stroke="#7E869A" stroke-linecap="round" stroke-linejoin="round"/>
</g>
<g clip-path="url(#clip0_63_1218)">
<path d="M104 19.4619V26.8462" stroke="#313749" stroke-linecap="round" stroke-linejoin="round"/>
<path d="M106.769 24.0771L104 26.8463L101.23 24.0771" stroke="#313749" stroke-linecap="round" stroke-linejoin="round"/>
<path d="M98.9231 28.7842H109.077" stroke="#313749" stroke-linecap="round" stroke-linejoin="round"/>
</g>
<path d="M150.98 41.3138L147.854 38.1875C147.539 37.8726 147.762 37.334 148.207 37.334H154.46C154.905 37.334 155.128 37.8726 154.813 38.1875L151.687 41.3138C151.492 41.509 151.175 41.509 150.98 41.3138Z" fill="#0046FF"/>
<path fill-rule="evenodd" clip-rule="evenodd" d="M36.6127 82.2035C37.6438 81.1724 39.0418 80.5924 40.5 80.5907C41.9582 80.5924 43.3561 81.1724 44.3872 82.2035C45.4183 83.2346 45.9983 84.6326 46 86.0907C46 90.797 41 94.3514 40.7868 94.5001C40.7028 94.559 40.6026 94.5906 40.5 94.5906C40.3973 94.5906 40.2972 94.559 40.2131 94.5001C40 94.3514 35 90.797 35 86.0907C35.0016 84.6326 35.5816 83.2346 36.6127 82.2035ZM40.5 88.5001C41.6045 88.5001 42.5 87.6047 42.5 86.5001C42.5 85.3955 41.6045 84.5001 40.5 84.5001C39.3954 84.5001 38.5 85.3955 38.5 86.5001C38.5 87.6047 39.3954 88.5001 40.5 88.5001Z" fill="#C4C8D4"/>
<circle cx="24" cy="84" r="3" fill="#C4C8D4"/>
<path d="M18 92C18 89.7909 19.7909 88 22 88H26C28.2091 88 30 89.7909 30 92V92C30 93.1046 29.1046 94 28 94H20C18.8954 94 18 93.1046 18 92V92Z" fill="#C4C8D4"/>
<path fill-rule="evenodd" clip-rule="evenodd" d="M4 83C2.89543 83 2 83.8954 2 85V86H14V85C14 83.8954 13.1046 83 12 83H4ZM14 87H2V93C2 94.1046 2.89543 95 4 95H12C13.1046 95 14 94.1046 14 93V87Z" fill="#C4C8D4"/>
<path fill-rule="evenodd" clip-rule="evenodd" d="M5.75 81.7524C5.75 81.3382 5.41421 81.0024 5 81.0024C4.58579 81.0024 4.25 81.3382 4.25 81.7524V84C4.25 84.4142 4.58579 84.75 5 84.75C5.41421 84.75 5.75 84.4142 5.75 84V81.7524ZM11.75 81.7539C11.75 81.3397 11.4142 81.0039 11 81.0039C10.5858 81.0039 10.25 81.3397 10.25 81.7539V84C10.25 84.4142 10.5858 84.75 11 84.75C11.4142 84.75 11.75 84.4142 11.75 84V81.7539Z" fill="#C4C8D4"/>
<path d="M106.25 35.5L101.75 40L106.25 44.5" stroke="white" stroke-linecap="round" stroke-linejoin="round"/>
<path d="M24.6676 99.1309L25.9735 101.787C26.0392 101.918 26.1632 102.006 26.3019 102.028L29.2275 102.451C29.585 102.502 29.731 102.947 29.4683 103.195L27.3525 105.26C27.2503 105.362 27.1993 105.508 27.2284 105.647L27.7319 108.565C27.7902 108.923 27.4181 109.193 27.0971 109.025L24.4779 107.646C24.3538 107.58 24.2006 107.58 24.0693 107.646L21.4501 109.025C21.129 109.193 20.7569 108.923 20.8153 108.565L21.3187 105.647C21.3406 105.508 21.2968 105.362 21.1947 105.26L19.0716 103.202C18.8089 102.947 18.9548 102.509 19.3123 102.458L22.238 102.035C22.3839 102.013 22.5007 101.925 22.5663 101.794L23.8796 99.1309C24.0401 98.8026 24.5071 98.8026 24.6676 99.1309Z" fill="url(#paint0_linear_63_1218)"/>
<path d="M8.66757 99.1308L9.97355 101.787C10.0392 101.918 10.1632 102.006 10.3019 102.027L13.2275 102.451C13.585 102.502 13.731 102.947 13.4683 103.195L11.3525 105.26C11.2503 105.362 11.1993 105.508 11.2284 105.646L11.7319 108.565C11.7902 108.922 11.4181 109.192 11.0971 109.025L8.47788 107.646C8.35385 107.58 8.20063 107.58 8.0693 107.646L5.45006 109.025C5.12904 109.192 4.75695 108.922 4.81531 108.565L5.31873 105.646C5.34062 105.508 5.29685 105.362 5.1947 105.26L3.07158 103.202C2.80893 102.947 2.95485 102.509 3.31235 102.458L6.23802 102.035C6.38394 102.013 6.50068 101.925 6.56634 101.794L7.87961 99.1308C8.04012 98.8025 8.50706 98.8025 8.66757 99.1308Z" fill="#C4C8D4" fill-opacity="0.6"/>
<path d="M132 57.3333L136 53.3333L140 57.3333" stroke="#313749" stroke-linecap="round" stroke-linejoin="round"/>
<path d="M120.328 25.6911C120.328 26.2077 120.132 26.7244 119.737 27.1191L118.588 28.268L117.95 28.9066C117.555 29.3013 117.038 29.4971 116.522 29.4971C116.005 29.4971 115.488 29.3013 115.094 28.9066C114.699 28.5119 114.503 27.9952 114.5 27.4786C114.5 26.9619 114.699 26.4452 115.094 26.0505L115.732 25.4119L116.881 24.263C117.276 23.8683 117.793 23.6725 118.309 23.6725" stroke="#313749" stroke-linecap="round" stroke-linejoin="round"/>
<path d="M119.672 22.308C119.672 21.7913 119.871 21.2746 120.263 20.8799L121.412 19.7311L122.05 19.0924C122.445 18.6977 122.962 18.502 123.478 18.502C123.995 18.502 124.512 18.7009 124.906 19.0924C125.301 19.4872 125.497 20.0038 125.5 20.5205C125.5 21.0372 125.301 21.5538 124.906 21.9486L124.268 22.5872L123.119 23.736C122.724 24.1308 122.208 24.3265 121.691 24.3265" stroke="#313749" stroke-linecap="round" stroke-linejoin="round"/>
<path d="M118.877 25.1204L121.124 22.874" stroke="#313749" stroke-linecap="round" stroke-linejoin="round"/>
<circle cx="87.9987" cy="8" r="7" transform="rotate(-180 87.9987 8)" fill="#7E869A"/>
<path d="M90.7083 8.86417L87.9995 6.15531L85.2906 8.86417" stroke="white" stroke-linecap="round" stroke-linejoin="round"/>
<path d="M104 66V78M98 72H110" stroke="#7E869A" stroke-width="1.5" stroke-linecap="round" stroke-linejoin="round"/>
<circle cx="56" cy="88" r="7" fill="#C4C8D4"/>
<path d="M52.5 85.5L54.5 90.5L56 86.5L57.5 90.5L59.5 85.5" stroke="white" stroke-linecap="round" stroke-linejoin="round"/>
<path d="M52 88H53.5" stroke="white" stroke-linecap="round" stroke-linejoin="round"/>
<path d="M58.5 88H60" stroke="white" stroke-linecap="round" stroke-linejoin="round"/>
<rect x="48" y="96" width="16" height="16" rx="8" fill="#A8BFFF"/>
<rect x="52" y="103" width="8" height="2" rx="1" fill="white"/>
<rect x="32" y="96" width="16" height="16" rx="8" fill="#A8AEBD"/>
<rect x="36" y="103" width="8" height="2" rx="1" fill="white"/>
<rect x="39" y="108" width="8" height="2" rx="1" transform="rotate(-90 39 108)" fill="white"/>
<path opacity="0.5" d="M8.00561 131C8.39762 131.004 8.78802 131.048 9.17095 131.13C9.25241 131.147 9.32616 131.189 9.38189 131.248C9.43762 131.308 9.47254 131.383 9.48178 131.463L9.57257 132.246C9.58539 132.356 9.62502 132.462 9.68827 132.555C9.75152 132.648 9.83662 132.726 9.93674 132.781C10.0368 132.837 10.1492 132.869 10.2647 132.876C10.3802 132.882 10.4956 132.862 10.6017 132.818L11.3494 132.503C11.4254 132.47 11.5099 132.462 11.5912 132.478C11.6725 132.494 11.7467 132.534 11.8034 132.592C12.344 133.146 12.7466 133.811 12.981 134.537C13.0055 134.613 13.0047 134.694 12.9787 134.77C12.9526 134.846 12.9027 134.912 12.8357 134.96L12.173 135.429C12.0796 135.495 12.0036 135.581 11.9513 135.68C11.8989 135.779 11.8717 135.889 11.8717 136C11.8717 136.111 11.8989 136.221 11.9513 136.32C12.0036 136.419 12.0796 136.505 12.173 136.571L12.8368 137.04C12.9039 137.088 12.9539 137.154 12.9799 137.23C13.0059 137.306 13.0067 137.387 12.9821 137.464C12.7478 138.189 12.3453 138.854 11.805 139.408C11.7484 139.467 11.6744 139.507 11.5931 139.523C11.5119 139.539 11.4275 139.53 11.3516 139.498L10.6007 139.182C10.4947 139.137 10.3793 139.117 10.2638 139.123C10.1482 139.129 10.0358 139.162 9.93568 139.217C9.83553 139.273 9.75042 139.35 9.68724 139.443C9.62407 139.537 9.5846 139.643 9.57203 139.753L9.48124 140.536C9.47218 140.614 9.43802 140.688 9.38344 140.748C9.32886 140.807 9.25651 140.849 9.17629 140.867C8.40271 141.044 7.59675 141.044 6.82318 140.867C6.74285 140.849 6.67039 140.807 6.61571 140.748C6.56102 140.689 6.52679 140.614 6.51769 140.536L6.42743 139.754C6.41432 139.644 6.37451 139.538 6.31118 139.446C6.24786 139.353 6.16279 139.276 6.06282 139.221C5.96284 139.165 5.85074 139.133 5.73551 139.127C5.62029 139.121 5.50515 139.141 5.39935 139.185L4.64844 139.501C4.57242 139.533 4.4879 139.541 4.40657 139.525C4.32525 139.509 4.25113 139.469 4.19448 139.411C3.65404 138.856 3.25177 138.19 3.01793 137.464C2.9933 137.388 2.99406 137.306 3.0201 137.23C3.04613 137.154 3.09615 137.088 3.16319 137.041L3.82704 136.571C3.92042 136.505 3.99636 136.419 4.04871 136.32C4.10105 136.221 4.12833 136.111 4.12833 136C4.12833 135.889 4.10105 135.779 4.04871 135.68C3.99636 135.581 3.92042 135.495 3.82704 135.429L3.16319 134.961C3.09615 134.913 3.04613 134.847 3.0201 134.771C2.99406 134.695 2.9933 134.613 3.01793 134.537C3.25229 133.812 3.65493 133.147 4.19555 132.592C4.25226 132.534 4.32641 132.494 4.40773 132.478C4.48905 132.462 4.57354 132.471 4.64951 132.503L5.39721 132.819C5.5035 132.863 5.61911 132.882 5.73477 132.876C5.85042 132.87 5.96288 132.837 6.06313 132.781C6.16337 132.726 6.2486 132.648 6.31196 132.555C6.37532 132.462 6.41505 132.356 6.42796 132.245L6.51876 131.463C6.52792 131.383 6.56287 131.308 6.61871 131.248C6.67455 131.188 6.74848 131.147 6.83012 131.129C7.21625 131.047 7.61018 131.004 8.00561 131ZM7.9992 134.462C7.57427 134.462 7.16674 134.624 6.86626 134.912C6.56579 135.201 6.39699 135.592 6.39699 136C6.39699 136.408 6.56579 136.8 6.86626 137.088C7.16674 137.377 7.57427 137.539 7.9992 137.539C8.42413 137.539 8.83166 137.377 9.13213 137.088C9.43261 136.8 9.60141 136.408 9.60141 136C9.60141 135.592 9.43261 135.201 9.13213 134.912C8.83166 134.624 8.42413 134.462 7.9992 134.462Z" fill="#12192B"/>
<path d="M74.6667 88C76.5067 88 78 86.5067 78 84.6667C78 82.8267 76.5067 81.3333 74.6667 81.3333C72.8267 81.3333 71.3333 82.8267 71.3333 84.6667C71.3333 86.5067 72.8267 88 74.6667 88ZM78.3 91.7333C78.04 91.4667 77.7133 91.3333 77.3333 91.3333H72.6667L71.28 90.8467L71.5 90.22L72.6667 90.6667H74.5333C74.7667 90.6667 74.9533 90.5733 75.1067 90.42C75.26 90.2667 75.3333 90.08 75.3333 89.8733C75.3333 89.5133 75.16 89.2667 74.8133 89.1267L69.9667 87.3333H68.6667V93.3333L73.3333 94.6667L78.6867 92.6667C78.6933 92.3133 78.56 92 78.3 91.7333ZM67.3333 87.3333H64.656V94.6667H67.3333V87.3333Z" fill="#C4C8D4"/>
<path d="M92 68L84 76M84 68L92 76" stroke="white" stroke-linecap="round"/>
<g clip-path="url(#clip1_63_1218)">
<path d="M149.604 124.926C152.341 126.507 155.842 125.569 157.422 122.831C159.003 120.094 158.065 116.593 155.327 115.013C152.59 113.432 149.09 114.37 147.509 117.108C146.778 118.374 146.586 119.804 146.861 121.131" stroke="#7E869A" stroke-linecap="round" stroke-linejoin="round"/>
<path d="M149.241 119.119L146.927 121.569L144.646 119.088" stroke="#7E869A" stroke-linecap="round" stroke-linejoin="round"/>
</g>
<circle cx="72" cy="8" r="7" fill="#EDEFF2"/>
<path d="M70.9877 10.9781C70.9877 10.7313 71.0612 10.5371 71.2082 10.3953C71.3552 10.2536 71.5625 10.1827 71.8303 10.1827C72.098 10.1827 72.3054 10.2562 72.4524 10.4032C72.5994 10.545 72.6729 10.7366 72.6729 10.9781C72.6729 11.2196 72.5994 11.4138 72.4524 11.5608C72.3054 11.7026 72.098 11.7735 71.8303 11.7735C71.5625 11.7735 71.3552 11.7026 71.2082 11.5608C71.0612 11.4191 70.9877 11.2248 70.9877 10.9781ZM71.0349 9.46459V8.98422C71.0349 8.67972 71.069 8.43034 71.1373 8.23609C71.2055 8.04184 71.3499 7.87909 71.5704 7.74784C71.7437 7.64284 71.8985 7.54834 72.035 7.46434C72.1715 7.38034 72.2818 7.30159 72.3658 7.22809C72.4918 7.11259 72.5758 7.00759 72.6178 6.91309C72.6598 6.81334 72.6808 6.69522 72.6808 6.55872C72.6808 6.37497 72.6178 6.23059 72.4918 6.12559C72.3658 6.02059 72.2135 5.96809 72.035 5.96809C71.8513 5.96809 71.6859 6.01272 71.5389 6.10197C71.3972 6.18597 71.3027 6.30934 71.2554 6.47209C71.1977 6.66109 71.0927 6.80547 70.9404 6.90522C70.7882 7.00497 70.6018 7.04697 70.3813 7.03122C70.292 7.02597 70.2054 7.00759 70.1214 6.97609C70.0374 6.93934 69.9639 6.88947 69.9009 6.82647C69.8432 6.76347 69.7959 6.68734 69.7592 6.59809C69.7224 6.50359 69.7067 6.39597 69.7119 6.27522C69.7172 6.03372 69.7828 5.81059 69.9088 5.60584C70.0348 5.39584 70.2028 5.21472 70.4128 5.06247C70.6228 4.91022 70.8669 4.79209 71.1452 4.70809C71.4234 4.61884 71.72 4.57422 72.035 4.57422C72.3605 4.57422 72.6598 4.61622 72.9328 4.70022C73.211 4.77897 73.4499 4.89972 73.6494 5.06247C73.8489 5.22522 74.0038 5.43259 74.114 5.68459C74.2295 5.93134 74.2873 6.22272 74.2873 6.55872C74.2873 6.82647 74.2558 7.05747 74.1928 7.25172C74.1298 7.44597 74.0274 7.62709 73.8857 7.79509C73.7649 7.93159 73.6153 8.06809 73.4368 8.20459C73.2635 8.34109 73.0798 8.47234 72.8855 8.59834C72.7753 8.67184 72.7044 8.75059 72.6729 8.83459C72.6414 8.91334 72.6257 9.00522 72.6257 9.11022V9.46459H71.0349Z" fill="#7E869A"/>
<circle cx="56" cy="8" r="7" fill="#7E869A"/>
<rect x="54.9493" y="6.94996" width="2.1" height="5.25" rx="1.05" fill="white"/>
<circle cx="55.9993" cy="4.84996" r="1.05" fill="white"/>
<path fill-rule="evenodd" clip-rule="evenodd" d="M24.0007 13.1667C26.8541 13.1667 29.1673 10.8535 29.1673 8.00004C29.1673 5.14657 26.8541 2.83337 24.0007 2.83337C21.1472 2.83337 18.834 5.14657 18.834 8.00004C18.834 10.8535 21.1472 13.1667 24.0007 13.1667ZM24.0007 14.6667C27.6825 14.6667 30.6673 11.6819 30.6673 8.00004C30.6673 4.31814 27.6825 1.33337 24.0007 1.33337C20.3188 1.33337 17.334 4.31814 17.334 8.00004C17.334 11.6819 20.3188 14.6667 24.0007 14.6667ZM24.6673 7.33337V11.3334H23.334V7.33337H24.6673ZM24.6673 6.00004V4.66671H23.334V6.00004H24.6673Z" fill="#12192B"/>
<circle cx="23.9987" cy="7.99967" r="6.66667" fill="#EDEFF2"/>
<path d="M23.332 7.33301H24.6654V11.333H23.332V7.33301Z" fill="#7E869A"/>
<path d="M23.332 4.66602H24.6654V5.99935H23.332V4.66602Z" fill="#7E869A"/>
<path d="M92.0585 82.2714L89.8888 84.0302C89.5326 84.319 89.088 84.4765 88.6294 84.4765H87.3618C86.9019 84.4765 86.4561 84.318 86.0994 84.0277L83.9415 82.2714C83.1737 81.6429 82 82.1756 82 83.1556V88.7056C82 91.6351 84.4461 94 87.4516 94H88.5484C91.5649 94 94 91.6245 94 88.7056V83.1556C94 82.1756 92.8263 81.6429 92.0585 82.2714Z" fill="#C4C8D4"/>
<circle cx="120" cy="88" r="7" fill="#C4C8D4"/>
<path d="M120 85.15C120.359 85.15 120.65 84.859 120.65 84.5C120.65 84.141 120.359 83.85 120 83.85L120 85.15ZM122.85 88C122.85 89.574 121.574 90.85 120 90.85L120 92.15C122.292 92.15 124.15 90.292 124.15 88L122.85 88ZM120 90.85C118.426 90.85 117.15 89.574 117.15 88L115.85 88C115.85 90.292 117.708 92.15 120 92.15L120 90.85ZM120 83.85C119.12 83.85 118.094 84.14 117.276 84.8094C116.437 85.4955 115.85 86.5552 115.85 88L117.15 88C117.15 86.9448 117.563 86.2545 118.099 85.8156C118.656 85.36 119.38 85.15 120 85.15L120 83.85Z" fill="white"/>
<path d="M122.391 88.6085L123.72 87.734L124.2 89.2512L122.391 88.6085Z" fill="white" stroke="white"/>
<path d="M111 88C111 91.866 107.866 95 104 95C100.134 95 97 91.866 97 88C97 84.134 100.134 81 104 81C107.866 81 111 84.134 111 88Z" fill="#C4C8D4"/>
<path d="M104 83.9999L104 87.9999" stroke="white" stroke-width="1.3" stroke-linecap="round"/>
<path d="M108 88L104 88" stroke="white" stroke-width="1.3" stroke-linecap="round"/>
<defs>
<linearGradient id="paint0_linear_63_1218" x1="18.6667" y1="98.6667" x2="29.3333" y2="109.333" gradientUnits="userSpaceOnUse">
<stop stop-color="#FFD12D"/>
<stop offset="1" stop-color="#FFA927"/>
</linearGradient>
<clipPath id="clip0_63_1218">
<rect width="12" height="10.2458" fill="white" transform="translate(98 19)"/>
</clipPath>
<clipPath id="clip1_63_1218">
<rect x="144" y="112" width="16" height="16" fill="white"/>
</clipPath>
</defs>
</svg>
