<svg width="480" height="480" viewBox="0 0 480 480" fill="none" xmlns="http://www.w3.org/2000/svg">
<circle cx="117.203" cy="21.9009" r="14.0932" stroke="#EDEFF2" stroke-width="4" stroke-linecap="round"/>
<path d="M127.805 31.1043L138.893 42.1923" stroke="#EDEFF2" stroke-width="4" stroke-linecap="round"/>
<rect x="57.5996" y="6" width="28.8" height="36" rx="2.61818" fill="#EDEFF2"/>
<rect x="62.1816" y="12.5454" width="19.6364" height="1.96364" rx="0.981818" fill="#F9FAFB"/>
<rect x="62.1816" y="18.4365" width="19.6364" height="1.96364" rx="0.981818" fill="#F9FAFB"/>
<rect x="62.1816" y="24.3271" width="19.6364" height="1.96364" rx="0.981818" fill="#F9FAFB"/>
<circle cx="168" cy="24" r="21" fill="#EDEFF2"/>
<path d="M169.998 25.9988C169.998 27.1033 169.103 27.9988 167.998 27.9988V27.9988C166.893 27.9988 165.998 27.1033 165.998 25.9988L165.998 16C165.998 14.8955 166.893 14 167.998 14V14C169.103 14 169.998 14.8954 169.998 16L169.998 25.9988Z" fill="white"/>
<ellipse cx="167.998" cy="31.9983" rx="2" ry="1.99975" transform="rotate(-180 167.998 31.9983)" fill="white"/>
<path d="M24 16V32" stroke="#656B7B" stroke-width="1.5" stroke-linecap="round" stroke-linejoin="round"/>
<path d="M30 22L24 16L18 22" stroke="#656B7B" stroke-width="1.5" stroke-linecap="round" stroke-linejoin="round"/>
</svg>
